<svg width="26" height="26" viewBox="0 0 26 26" fill="none" xmlns="http://www.w3.org/2000/svg">
<path d="M16.1094 10.5244C16.0164 10.4315 15.9427 10.3212 15.8923 10.1998C15.842 10.0784 15.8161 9.9483 15.8161 9.81689C15.8161 9.68547 15.842 9.55535 15.8923 9.43395C15.9427 9.31255 16.0164 9.20226 16.1094 9.10939L20.4032 4.81689H17.8169C17.5517 4.81689 17.2973 4.71153 17.1098 4.52399C16.9223 4.33646 16.8169 4.0821 16.8169 3.81689C16.8169 3.55167 16.9223 3.29732 17.1098 3.10978C17.2973 2.92224 17.5517 2.81689 17.8169 2.81689H22.8169C23.0821 2.81689 23.3365 2.92224 23.524 3.10978C23.7115 3.29732 23.8169 3.55167 23.8169 3.81689V8.81689C23.8169 9.0821 23.7115 9.33646 23.524 9.52399C23.3365 9.71153 23.0821 9.81689 22.8169 9.81689C22.5517 9.81689 22.2973 9.71153 22.1098 9.52399C21.9223 9.33646 21.8169 9.0821 21.8169 8.81689V6.23064L17.5244 10.5244C17.4315 10.6174 17.3212 10.6911 17.1998 10.7414C17.0784 10.7918 16.9483 10.8177 16.8169 10.8177C16.6855 10.8177 16.5554 10.7918 16.434 10.7414C16.3126 10.6911 16.2023 10.6174 16.1094 10.5244ZM25.8019 19.7019C25.579 21.3957 24.7472 22.9504 23.4618 24.0757C22.1764 25.201 20.5253 25.8199 18.8169 25.8169C8.89191 25.8169 0.816906 17.7419 0.816906 7.81689C0.813843 6.1085 1.43276 4.45742 2.55807 3.17201C3.68338 1.8866 5.23812 1.05477 6.93191 0.831888C7.36008 0.779494 7.79371 0.866937 8.16812 1.08117C8.54252 1.29541 8.83763 1.62495 9.00941 2.02064L11.6494 7.91564V7.93064C11.7808 8.2337 11.835 8.56459 11.8073 8.89373C11.7796 9.22288 11.6708 9.54004 11.4907 9.81689C11.4682 9.85064 11.4444 9.88189 11.4194 9.91314L8.81691 12.9981C9.75316 14.9006 11.7432 16.8731 13.6707 17.8119L16.7132 15.2231C16.743 15.198 16.7743 15.1746 16.8069 15.1531C17.0832 14.9679 17.4015 14.8548 17.7328 14.8243C18.064 14.7937 18.3976 14.8466 18.7032 14.9781L18.7194 14.9856L24.6082 17.6244C25.0048 17.7954 25.3354 18.0901 25.5506 18.4646C25.7657 18.8391 25.8539 19.2731 25.8019 19.7019ZM23.8169 19.4519C23.8169 19.4519 23.8082 19.4519 23.8032 19.4519L17.9282 16.8194L14.8844 19.4094C14.8549 19.4344 14.824 19.4578 14.7919 19.4794C14.5041 19.6714 14.1714 19.7855 13.8263 19.8104C13.4813 19.8354 13.1356 19.7704 12.8232 19.6219C10.4819 18.4906 8.14816 16.1744 7.01566 13.8581C6.86569 13.548 6.7984 13.2043 6.8203 12.8605C6.8422 12.5166 6.95255 12.1843 7.14066 11.8956C7.16186 11.8617 7.18568 11.8296 7.21191 11.7994L9.81691 8.71064L7.19191 2.83564C7.19141 2.83065 7.19141 2.82563 7.19191 2.82064C5.97972 2.97876 4.86675 3.57334 4.06142 4.49303C3.25609 5.41272 2.81363 6.59444 2.81691 7.81689C2.82154 12.0589 4.50873 16.1259 7.50831 19.1255C10.5079 22.1251 14.5749 23.8123 18.8169 23.8169C20.0386 23.8211 21.22 23.3802 22.1402 22.5766C23.0605 21.773 23.6565 20.6618 23.8169 19.4506V19.4519Z" fill="white"/>
</svg>
