<svg width="296" height="167" viewBox="0 0 296 167" fill="none" xmlns="http://www.w3.org/2000/svg">
<mask id="mask0_101_24" style="mask-type:luminance" maskUnits="userSpaceOnUse" x="23" y="95" width="252" height="23">
<path d="M37.3377 108.739L37.093 108.725V107.788H35.0489C35.8362 107.779 36.4841 107.761 36.9924 107.734L35.3598 103.105C35.1177 102.425 34.7724 101.44 34.3334 100.149C34.0033 99.209 33.7712 98.5441 33.638 98.1598C33.5052 98.5639 33.2336 99.3271 32.8292 100.45C32.3849 101.681 32.0744 102.558 31.8867 103.075L30.2392 107.734L30.6835 107.752V107.788H30.0731V108.705H30.6835C30.3916 108.714 30.1233 108.726 29.8792 108.739L28.5818 112.314C28.0589 113.738 27.7975 114.757 27.7975 115.373C27.7975 115.594 27.8269 115.776 27.8861 115.924C28.0195 116.21 28.2858 116.407 28.6803 116.515C28.8629 116.565 29.2921 116.619 29.968 116.688C30.1701 116.707 30.2689 116.816 30.2689 117.018C30.2689 117.21 30.1701 117.308 29.968 117.308C28.8283 117.249 27.8468 117.22 27.0182 117.22C25.9772 117.22 24.9462 117.249 23.9251 117.308C23.7523 117.308 23.6637 117.21 23.6637 117.018C23.6637 116.826 23.7523 116.717 23.9251 116.688C24.8131 116.574 25.4345 116.308 25.79 115.895C26.1104 115.53 26.6529 114.299 27.4226 112.206L30.8359 102.947C32.114 99.4847 32.9129 97.2683 33.2336 96.2983L34.4321 95.7366C34.5207 95.7366 34.5901 95.8207 34.6492 95.9833C35.9961 100.105 36.7903 102.479 37.0172 103.105L40.3569 112.433C41.0327 114.309 41.5309 115.471 41.8613 115.924C42.0735 116.22 42.3744 116.422 42.7738 116.53C42.9812 116.589 43.3658 116.638 43.9132 116.688C44.1058 116.707 44.1996 116.816 44.1996 117.018C44.1996 117.21 44.1058 117.308 43.9132 117.308C42.5075 117.229 41.3777 117.195 40.5296 117.195C39.7104 117.195 38.6204 117.229 37.2492 117.308C37.0566 117.308 36.9627 117.21 36.9627 117.018C36.9627 116.816 37.0566 116.707 37.2492 116.688C38.4724 116.584 39.1729 116.338 39.3456 115.954C39.4246 115.776 39.4639 115.575 39.4639 115.348C39.4639 114.885 39.227 114.004 38.7536 112.703L37.3377 108.739ZM54.7067 96.0914C58.7762 96.0914 61.8055 97.2683 63.7982 99.6275C65.3222 101.445 66.0823 103.75 66.0823 106.547C66.0823 109.837 65.0757 112.457 63.0631 114.412C61.021 116.382 58.1596 117.367 54.4801 117.367C54.3318 117.367 53.3007 117.338 51.3869 117.279C51.3179 117.279 50.8098 117.259 49.8676 117.22C49.3496 117.2 48.9304 117.19 48.6093 117.19C47.8401 117.19 46.8092 117.229 45.5164 117.308C45.3436 117.308 45.2552 117.21 45.2552 117.018C45.2552 116.826 45.3436 116.717 45.5164 116.688C46.6165 116.609 47.3073 116.328 47.5984 115.836C47.8993 115.348 48.047 114.023 48.047 111.871V101.445C48.047 99.7899 48.0374 98.8297 48.0176 98.5586C47.9879 98.1842 47.8993 97.8593 47.7414 97.5935C47.5293 97.1895 46.7496 96.9236 45.4031 96.8006C45.2307 96.7808 45.1415 96.6677 45.1415 96.4658C45.1415 96.2538 45.2402 96.1505 45.4329 96.1505C46.7989 96.2294 47.8204 96.2639 48.4962 96.2639C49.2461 96.2639 50.1636 96.2392 51.2389 96.1802C52.531 96.1211 53.6853 96.0914 54.7067 96.0914ZM49.6799 101.44V111.876C49.6799 113.166 49.6998 113.964 49.7391 114.269C49.7936 114.841 49.9465 115.279 50.1834 115.599C50.4841 115.993 51.0859 116.244 51.9938 116.348C52.4375 116.397 53.2462 116.422 54.4204 116.422C57.8491 116.422 60.4239 115.294 62.1356 113.043C63.4477 111.329 64.1039 109.197 64.1039 106.636C64.1039 103.641 63.1666 101.258 61.2971 99.4752C59.5954 97.8498 57.3704 97.0371 54.6228 97.0371C53.0889 97.0371 52.0232 97.0863 51.4114 97.1798C50.7407 97.2881 50.3113 97.4754 50.1289 97.746C49.9168 98.0516 49.7787 98.5586 49.7242 99.2578C49.6948 99.652 49.6799 100.381 49.6799 101.44ZM73.5111 106.995V111.871C73.5111 113.565 73.526 114.585 73.5554 114.944C73.5902 115.299 73.6889 115.614 73.8416 115.895C74.0734 116.338 74.8234 116.604 76.0959 116.688C76.2684 116.707 76.3576 116.816 76.3576 117.018C76.3576 117.21 76.2588 117.308 76.0662 117.308C74.5369 117.229 73.4077 117.195 72.6873 117.195C71.7996 117.195 70.7289 117.229 69.4759 117.308C69.2836 117.308 69.19 117.21 69.19 117.018C69.19 116.826 69.2836 116.717 69.4759 116.688C70.6057 116.574 71.2763 116.308 71.4885 115.895C71.7649 115.422 71.9079 114.082 71.9079 111.871V101.415C71.9079 99.8393 71.8882 98.8791 71.8485 98.5441C71.8091 98.1894 71.7105 97.8695 71.5429 97.5935C71.311 97.1895 70.5214 96.9236 69.1751 96.8006C69.0024 96.7709 68.9136 96.6578 68.9136 96.4658C68.9136 96.2538 69.0024 96.1505 69.1751 96.1505C70.5416 96.2294 71.6611 96.2639 72.5294 96.2639C72.7319 96.2639 73.3827 96.2441 74.4927 96.2095C75.3611 96.1505 76.3771 96.1211 77.5412 96.1211C80.0374 96.1211 81.8921 96.7069 83.1058 97.8791C84.0477 98.8052 84.5214 100.012 84.5214 101.504C84.5214 102.76 84.0728 103.863 83.1798 104.804C82.3117 105.72 81.1029 106.384 79.5489 106.798C81.1672 109.911 82.4792 112.299 83.4808 113.964C84.1369 115.087 84.6992 115.826 85.1726 116.185C85.5082 116.431 86.1297 116.604 87.0372 116.688C87.2297 116.717 87.3282 116.826 87.3282 117.018C87.3282 117.21 87.2297 117.308 87.0372 117.308C86.1392 117.249 85.4389 117.22 84.9258 117.22C84.1663 117.22 83.5991 117.229 83.2241 117.249C83.0166 116.633 82.6519 115.855 82.1243 114.915C81.5568 113.925 80.7871 112.512 79.8254 110.674C78.9179 108.985 78.2664 107.769 77.8617 107.025C77.2159 107.084 76.6139 107.114 76.0514 107.114C75.3216 107.114 74.4729 107.074 73.5111 106.995ZM73.5111 106.05C74.4729 106.168 75.3311 106.227 76.0811 106.227C78.4537 106.227 80.1954 105.72 81.3149 104.71C82.1732 103.932 82.6026 102.912 82.6026 101.652C82.6026 98.5734 80.6638 97.0371 76.7917 97.0371C75.864 97.0371 75.2674 97.0568 74.9959 97.0961C74.5076 97.1601 74.162 97.3227 73.9599 97.569C73.7379 97.83 73.5951 98.3716 73.5406 99.1892C73.5208 99.5438 73.5111 100.287 73.5111 101.415V106.05ZM88.6849 116.688C89.3014 116.629 89.7206 116.565 89.9429 116.486C90.2882 116.372 90.54 116.176 90.6926 115.895C90.8948 115.589 91.0232 115.062 91.0675 114.324C91.0969 113.9 91.1118 113.082 91.1118 111.871V101.415C91.1118 99.8393 91.092 98.8738 91.0526 98.5292C91.0183 98.1747 90.9146 97.8544 90.7517 97.5638C90.5789 97.2832 90.2535 97.0863 89.7851 96.9731C89.6272 96.9434 89.198 96.8843 88.4977 96.8006C88.3444 96.7709 88.2654 96.6578 88.2654 96.4658C88.2654 96.2538 88.3444 96.1505 88.4977 96.1505C90.1352 96.2488 91.2601 96.2983 91.8766 96.2983C92.582 96.2983 93.677 96.2488 95.1567 96.1505C95.3592 96.1505 95.4629 96.2538 95.4629 96.4658C95.4629 96.6578 95.3642 96.7709 95.1716 96.8006C94.5009 96.8843 94.0764 96.9582 93.9037 97.0173C93.5538 97.1307 93.2924 97.3128 93.1052 97.5638C92.9221 97.8695 92.8138 98.4009 92.7745 99.1497C92.7546 99.4699 92.7448 100.224 92.7448 101.415V111.871C92.7448 113.565 92.7597 114.589 92.7894 114.959C92.8284 115.323 92.9221 115.634 93.0801 115.895C93.2529 116.195 93.5634 116.397 94.0173 116.515C94.2492 116.574 94.6638 116.629 95.2607 116.688C95.4629 116.717 95.5614 116.826 95.5614 117.018C95.5614 117.21 95.4676 117.308 95.2757 117.308C93.9089 117.229 92.7792 117.195 91.8912 117.195C91.0431 117.195 89.9774 117.229 88.6849 117.308C88.5125 117.308 88.4234 117.21 88.4234 117.018C88.4234 116.826 88.5125 116.717 88.6849 116.688ZM110.039 108.666V107.751H109.472L109.857 107.734L108.224 103.104C107.983 102.425 107.637 101.44 107.198 100.149C106.868 99.2087 106.636 98.5438 106.503 98.1595C106.37 98.5636 106.098 99.3268 105.694 100.45C105.25 101.681 104.939 102.558 104.752 103.075L103.104 107.734L103.538 107.751H103.324H103.019V108.666H102.713V108.823L101.447 112.314C100.924 113.737 100.662 114.757 100.662 115.372C100.662 115.594 100.692 115.776 100.751 115.924C100.884 116.21 101.151 116.407 101.545 116.515C101.728 116.564 102.157 116.618 102.833 116.687C103.035 116.707 103.134 116.815 103.134 117.018C103.134 117.209 103.035 117.308 102.833 117.308C101.693 117.249 100.712 117.219 99.8829 117.219C98.8421 117.219 97.8112 117.249 96.79 117.308C96.6172 117.308 96.5286 117.209 96.5286 117.018C96.5286 116.825 96.6172 116.717 96.79 116.687C97.6777 116.574 98.2992 116.308 98.6546 115.895C98.975 115.53 99.5178 114.299 100.287 112.205L103.701 102.947C104.979 99.4844 105.777 97.268 106.098 96.298L107.297 95.7363C107.386 95.7363 107.455 95.8203 107.514 95.983C108.861 100.105 109.655 102.479 109.882 103.104L113.221 112.432C113.897 114.308 114.396 115.471 114.726 115.924C114.938 116.219 115.239 116.422 115.639 116.53C115.846 116.589 116.231 116.638 116.778 116.687C116.971 116.707 117.064 116.815 117.064 117.018C117.064 117.209 116.971 117.308 116.778 117.308C115.372 117.229 114.243 117.194 113.394 117.194C112.575 117.194 111.485 117.229 110.114 117.308C109.921 117.308 109.828 117.209 109.828 117.018C109.828 116.815 109.921 116.707 110.114 116.687C111.337 116.584 112.038 116.337 112.211 115.954C112.289 115.776 112.329 115.574 112.329 115.348C112.329 114.885 112.092 114.003 111.619 112.703L110.344 109.134V108.666H110.039ZM105.155 108.669H105.46H105.592L105.155 108.673V108.669ZM122.269 99.0459H122.012L122.037 111.871C122.037 114.082 122.155 115.402 122.387 115.835C122.619 116.308 123.3 116.594 124.439 116.687C124.612 116.717 124.696 116.825 124.696 117.017C124.696 117.209 124.602 117.308 124.409 117.308C122.752 117.229 121.76 117.194 121.43 117.194C120.71 117.194 119.723 117.229 118.47 117.308C118.297 117.308 118.209 117.209 118.209 117.017C118.209 116.815 118.297 116.707 118.47 116.687C119.037 116.638 119.432 116.564 119.654 116.456C119.925 116.332 120.157 116.116 120.349 115.805C120.606 115.377 120.759 114.062 120.794 111.871L120.882 101.444C120.882 100.981 120.882 100.666 120.882 100.489C120.882 99.105 120.764 98.2136 120.522 97.8098C120.162 97.2336 119.412 96.8939 118.268 96.8002C118.075 96.7705 117.977 96.6527 117.977 96.4406C117.977 96.2484 118.075 96.1501 118.268 96.1501C119.23 96.2091 119.96 96.2388 120.463 96.2388C121.233 96.2388 121.884 96.2285 122.416 96.2091C123.048 97.3173 123.822 98.5091 124.725 99.7847L132.124 110.428C133.136 111.88 134.152 113.353 135.173 114.855L135.149 110.038L135.203 101.444C135.203 99.3069 135.055 98.0265 134.754 97.5931C134.552 97.3025 134.29 97.1056 133.96 97.002C133.693 96.9034 133.264 96.8398 132.677 96.8002C132.519 96.7804 132.445 96.6673 132.445 96.4654C132.445 96.2534 132.529 96.1501 132.702 96.1501C134.537 96.2289 135.548 96.2635 135.74 96.2635C136.189 96.2635 137.176 96.2289 138.685 96.1501C138.907 96.1501 139.021 96.2484 139.021 96.4406C139.021 96.6573 138.907 96.7804 138.685 96.8002C138.089 96.8546 137.684 96.9281 137.472 97.0169C137.26 97.1006 137.077 97.263 136.924 97.5044C136.623 97.9968 136.456 99.3069 136.416 101.444L136.244 111.871C136.214 112.649 136.199 113.476 136.199 114.348C136.199 115.195 136.214 116.18 136.244 117.308C135.676 117.643 135.366 117.81 135.321 117.81C135.252 117.81 135.183 117.761 135.119 117.667C134.685 116.933 133.511 115.2 131.592 112.462L122.269 99.0459ZM152.518 95.6771C155.793 95.6771 158.403 96.8348 160.351 99.1542C162.038 101.159 162.877 103.666 162.877 106.665C162.877 110.132 161.782 112.924 159.582 115.042C157.668 116.869 155.29 117.781 152.458 117.781C149.202 117.781 146.578 116.613 144.58 114.279C142.849 112.24 141.98 109.733 141.98 106.763C141.98 103.35 143.115 100.578 145.379 98.4454C147.343 96.5983 149.72 95.6771 152.518 95.6771ZM152.518 96.5637C149.888 96.5637 147.757 97.6225 146.129 99.7356C144.704 101.597 143.988 103.907 143.988 106.665C143.988 109.94 144.881 112.521 146.662 114.417C148.196 116.047 150.125 116.865 152.458 116.865C155.117 116.865 157.233 115.811 158.802 113.708C160.183 111.876 160.869 109.561 160.869 106.763C160.869 103.478 159.991 100.893 158.239 98.9965C156.725 97.3763 154.821 96.5637 152.518 96.5637ZM192.958 96.4457C193.032 97.5341 193.185 99.1248 193.417 101.213C193.427 101.262 193.432 101.311 193.432 101.356C193.432 101.494 193.353 101.582 193.185 101.631C193.131 101.642 193.076 101.646 193.027 101.646C192.903 101.646 192.805 101.548 192.741 101.356C192.124 99.7452 191.296 98.5635 190.255 97.8098C189.174 97.0169 187.744 96.6228 185.963 96.6228C183.467 96.6228 181.459 97.6666 179.95 99.7501C178.608 101.597 177.942 103.907 177.942 106.675C177.942 109.635 178.785 112.048 180.483 113.91C181.987 115.564 183.857 116.392 186.091 116.392C188.035 116.392 189.683 115.954 191.034 115.077C192.085 114.392 193.017 113.402 193.836 112.102C193.925 111.95 194.019 111.871 194.127 111.871C194.196 111.871 194.275 111.895 194.374 111.944C194.527 112.018 194.601 112.112 194.601 112.216C194.601 112.294 194.566 112.393 194.487 112.506C192.578 116.022 189.762 117.781 186.032 117.781C182.9 117.781 180.384 116.613 178.475 114.279C176.817 112.25 175.988 109.733 175.988 106.734C175.988 103.296 177.044 100.533 179.156 98.4454C181.005 96.6181 183.309 95.7069 186.077 95.7069C187.339 95.7069 188.484 95.8348 189.515 96.091C190.625 96.3667 191.463 96.5047 192.031 96.5047C192.332 96.5047 192.637 96.4848 192.958 96.4457ZM207.367 95.6771C210.643 95.6771 213.252 96.8348 215.201 99.1542C216.888 101.159 217.727 103.666 217.727 106.665C217.727 110.132 216.632 112.924 214.431 115.042C212.517 116.869 210.14 117.781 207.308 117.781C204.052 117.781 201.428 116.613 199.43 114.279C197.699 112.24 196.83 109.733 196.83 106.763C196.83 103.35 197.965 100.578 200.229 98.4454C202.193 96.5983 204.57 95.6771 207.367 95.6771ZM207.367 96.5637C204.738 96.5637 202.607 97.6225 200.979 99.7356C199.554 101.597 198.838 103.907 198.838 106.665C198.838 109.94 199.731 112.521 201.512 114.417C203.046 116.047 204.975 116.865 207.308 116.865C209.967 116.865 212.083 115.811 213.652 113.708C215.033 111.876 215.719 109.561 215.719 106.763C215.719 103.478 214.841 100.893 213.089 98.9965C211.575 97.3763 209.671 96.5637 207.367 96.5637ZM232.674 96.2091C232.762 97.7115 232.876 99.2428 233.024 100.809C233.029 100.849 233.033 100.873 233.033 100.883C233.033 101.006 232.934 101.085 232.732 101.114C232.703 101.114 232.678 101.114 232.658 101.114C232.515 101.114 232.427 101.04 232.402 100.898C232.101 99.3906 231.45 98.258 230.448 97.4995C229.649 96.8939 228.697 96.5931 227.588 96.5931C226.152 96.5931 225.067 97.0267 224.337 97.8886C223.774 98.5436 223.498 99.3511 223.498 100.312C223.498 101.272 223.745 102.065 224.233 102.69C224.766 103.365 225.649 104.01 226.892 104.636L228.382 105.37C230.172 106.266 231.44 107.069 232.185 107.778C233.3 108.862 233.857 110.127 233.857 111.57C233.857 113.348 233.383 114.766 232.427 115.835C231.272 117.13 229.472 117.781 227.025 117.781C225.357 117.781 223.675 117.451 221.979 116.786C221.574 115.446 221.214 113.855 220.898 112.008C220.888 111.984 220.883 111.954 220.883 111.925C220.883 111.816 220.972 111.748 221.154 111.708C221.214 111.699 221.263 111.693 221.303 111.693C221.406 111.693 221.49 111.762 221.544 111.895C222.117 113.574 222.955 114.86 224.075 115.741C225.047 116.51 226.137 116.894 227.34 116.894C229.047 116.894 230.33 116.377 231.183 115.338C231.82 114.569 232.14 113.653 232.14 112.599C232.14 111.275 231.701 110.152 230.823 109.241C230.167 108.566 229.121 107.867 227.676 107.138L226.403 106.488C224.869 105.719 223.774 104.981 223.123 104.266C222.245 103.326 221.806 102.227 221.806 100.967C221.806 99.3906 222.363 98.1102 223.483 97.1204C224.544 96.1798 225.949 95.7069 227.701 95.7069C228.51 95.7069 229.25 95.8055 229.915 96.0024C230.532 96.1798 231.179 96.2681 231.864 96.2681C232.185 96.2681 232.452 96.2484 232.674 96.2091ZM255.148 96.1501C255.262 97.7408 255.444 99.3267 255.696 100.917C255.705 100.967 255.711 101.001 255.711 101.031C255.711 101.149 255.617 101.228 255.434 101.277C255.37 101.287 255.316 101.292 255.276 101.292C255.173 101.292 255.094 101.213 255.045 101.06C254.911 100.425 254.665 99.7749 254.309 99.1198C253.969 98.4846 253.624 98.0463 253.269 97.8052C252.603 97.3322 251.36 97.0957 249.539 97.0957L248.844 97.0808C247.961 97.0808 247.394 97.2679 247.157 97.6422C246.964 97.9032 246.846 98.4203 246.806 99.1888C246.797 99.4104 246.792 100.159 246.792 101.44V111.871C246.792 113.476 246.821 114.501 246.88 114.944C246.93 115.288 247.048 115.604 247.24 115.894C247.423 116.19 247.744 116.396 248.197 116.515C248.454 116.584 248.893 116.638 249.51 116.687C249.712 116.717 249.816 116.825 249.816 117.017C249.816 117.209 249.717 117.308 249.525 117.308C247.837 117.229 246.673 117.194 246.027 117.194C245.361 117.194 244.266 117.229 242.732 117.308C242.539 117.308 242.446 117.209 242.446 117.017C242.446 116.825 242.539 116.717 242.732 116.687C243.358 116.628 243.803 116.559 244.064 116.471C244.389 116.348 244.626 116.155 244.769 115.894C245.031 115.421 245.159 114.082 245.159 111.871V101.44C245.159 99.8683 245.144 98.9081 245.119 98.5535C245.08 98.1594 244.981 97.8391 244.828 97.603C244.616 97.263 243.852 97.0957 242.529 97.0957C240.71 97.0957 239.476 97.3616 238.83 97.8935C238.139 98.3712 237.552 99.4401 237.084 101.09C237.034 101.223 236.95 101.292 236.837 101.292C236.788 101.292 236.728 101.283 236.665 101.262C236.496 101.223 236.418 101.154 236.418 101.046C236.418 101.026 236.423 100.991 236.432 100.947C236.699 99.2036 236.906 97.603 237.054 96.1501C239.856 96.2289 242.851 96.2635 246.027 96.2635C249.322 96.2635 252.361 96.2289 255.148 96.1501ZM267.559 108.738L267.528 108.736V108.36H267.223V107.751H266.829L267.214 107.733L265.581 103.104C265.34 102.424 264.994 101.439 264.555 100.149C264.225 99.2083 263.993 98.5433 263.86 98.1591C263.727 98.5631 263.455 99.3264 263.051 100.449C262.607 101.681 262.296 102.557 262.108 103.074L260.461 107.733L260.895 107.751H260.508V108.056H260.203V108.734L260.101 108.738L258.803 112.313C258.28 113.736 258.019 114.756 258.019 115.372C258.019 115.593 258.049 115.775 258.108 115.923C258.241 116.209 258.507 116.406 258.902 116.514C259.085 116.563 259.514 116.617 260.19 116.686C260.392 116.706 260.491 116.815 260.491 117.017C260.491 117.208 260.392 117.307 260.19 117.307C259.05 117.248 258.068 117.219 257.24 117.219C256.199 117.219 255.168 117.248 254.147 117.307C253.974 117.307 253.885 117.208 253.885 117.017C253.885 116.824 253.974 116.716 254.147 116.686C255.035 116.573 255.656 116.307 256.011 115.894C256.332 115.529 256.874 114.298 257.644 112.205L261.057 102.946C262.336 99.4835 263.134 97.2671 263.455 96.2971L264.654 95.7354C264.742 95.7354 264.812 95.8194 264.871 95.9821C266.218 100.104 267.012 102.478 267.239 103.103L270.578 112.431C271.254 114.308 271.753 115.47 272.083 115.923C272.295 116.218 272.596 116.421 272.995 116.529C273.203 116.588 273.587 116.637 274.135 116.686C274.327 116.706 274.421 116.815 274.421 117.017C274.421 117.208 274.327 117.307 274.135 117.307C272.729 117.228 271.599 117.193 270.751 117.193C269.932 117.193 268.842 117.228 267.471 117.307C267.278 117.307 267.184 117.208 267.184 117.017C267.184 116.815 267.278 116.706 267.471 116.686C268.694 116.583 269.394 116.337 269.567 115.953C269.646 115.775 269.685 115.573 269.685 115.347C269.685 114.884 269.449 114.002 268.975 112.702L267.559 108.738Z" fill="white"/>
</mask>
<g mask="url(#mask0_101_24)">
<path fill-rule="evenodd" clip-rule="evenodd" d="M37.3377 108.739L37.093 108.725V107.788H35.0489C35.8362 107.779 36.4841 107.761 36.9924 107.734L35.3598 103.105C35.1177 102.425 34.7724 101.44 34.3334 100.149C34.0033 99.209 33.7712 98.5441 33.638 98.1598C33.5052 98.5639 33.2336 99.3271 32.8292 100.45C32.3849 101.681 32.0744 102.558 31.8867 103.075L30.2392 107.734L30.6835 107.752V107.788H30.0731V108.705H30.6835C30.3916 108.714 30.1233 108.726 29.8792 108.739L28.5818 112.314C28.0589 113.738 27.7975 114.757 27.7975 115.373C27.7975 115.594 27.8269 115.776 27.8861 115.924C28.0195 116.21 28.2858 116.407 28.6803 116.515C28.8629 116.565 29.2921 116.619 29.968 116.688C30.1701 116.707 30.2689 116.816 30.2689 117.018C30.2689 117.21 30.1701 117.308 29.968 117.308C28.8283 117.249 27.8468 117.22 27.0182 117.22C25.9772 117.22 24.9462 117.249 23.9251 117.308C23.7523 117.308 23.6637 117.21 23.6637 117.018C23.6637 116.826 23.7523 116.717 23.9251 116.688C24.8131 116.574 25.4345 116.308 25.79 115.895C26.1104 115.53 26.6529 114.299 27.4226 112.206L30.8359 102.947C32.114 99.4847 32.9129 97.2683 33.2336 96.2983L34.4321 95.7366C34.5207 95.7366 34.5901 95.8207 34.6492 95.9833C35.9961 100.105 36.7903 102.479 37.0172 103.105L40.3569 112.433C41.0327 114.309 41.5309 115.471 41.8613 115.924C42.0735 116.22 42.3744 116.422 42.7738 116.53C42.9812 116.589 43.3658 116.638 43.9132 116.688C44.1058 116.707 44.1996 116.816 44.1996 117.018C44.1996 117.21 44.1058 117.308 43.9132 117.308C42.5075 117.229 41.3777 117.195 40.5296 117.195C39.7104 117.195 38.6204 117.229 37.2492 117.308C37.0566 117.308 36.9627 117.21 36.9627 117.018C36.9627 116.816 37.0566 116.707 37.2492 116.688C38.4724 116.584 39.1729 116.338 39.3456 115.954C39.4246 115.776 39.4639 115.575 39.4639 115.348C39.4639 114.885 39.227 114.004 38.7536 112.703L37.3377 108.739ZM54.7067 96.0914C58.7762 96.0914 61.8055 97.2683 63.7982 99.6275C65.3222 101.445 66.0823 103.75 66.0823 106.547C66.0823 109.837 65.0757 112.457 63.0631 114.412C61.021 116.382 58.1596 117.367 54.4801 117.367C54.3318 117.367 53.3007 117.338 51.3869 117.279C51.3179 117.279 50.8098 117.259 49.8676 117.22C49.3496 117.2 48.9304 117.19 48.6093 117.19C47.8401 117.19 46.8092 117.229 45.5164 117.308C45.3436 117.308 45.2552 117.21 45.2552 117.018C45.2552 116.826 45.3436 116.717 45.5164 116.688C46.6165 116.609 47.3073 116.328 47.5984 115.836C47.8993 115.348 48.047 114.023 48.047 111.871V101.445C48.047 99.7899 48.0374 98.8297 48.0176 98.5586C47.9879 98.1842 47.8993 97.8593 47.7414 97.5935C47.5293 97.1895 46.7496 96.9236 45.4031 96.8006C45.2307 96.7808 45.1415 96.6677 45.1415 96.4658C45.1415 96.2538 45.2402 96.1505 45.4329 96.1505C46.7989 96.2294 47.8204 96.2639 48.4962 96.2639C49.2461 96.2639 50.1636 96.2392 51.2389 96.1802C52.531 96.1211 53.6853 96.0914 54.7067 96.0914ZM49.6799 101.44V111.876C49.6799 113.166 49.6998 113.964 49.7391 114.269C49.7936 114.841 49.9465 115.279 50.1834 115.599C50.4841 115.993 51.0859 116.244 51.9938 116.348C52.4375 116.397 53.2462 116.422 54.4204 116.422C57.8491 116.422 60.4239 115.294 62.1356 113.043C63.4477 111.329 64.1039 109.197 64.1039 106.636C64.1039 103.641 63.1666 101.258 61.2971 99.4752C59.5954 97.8498 57.3704 97.0371 54.6228 97.0371C53.0889 97.0371 52.0232 97.0863 51.4114 97.1798C50.7407 97.2881 50.3113 97.4754 50.1289 97.746C49.9168 98.0516 49.7787 98.5586 49.7242 99.2578C49.6948 99.652 49.6799 100.381 49.6799 101.44ZM73.5111 106.995V111.871C73.5111 113.565 73.526 114.585 73.5554 114.944C73.5902 115.299 73.6889 115.614 73.8416 115.895C74.0734 116.338 74.8234 116.604 76.0959 116.688C76.2684 116.707 76.3576 116.816 76.3576 117.018C76.3576 117.21 76.2588 117.308 76.0662 117.308C74.5369 117.229 73.4077 117.195 72.6873 117.195C71.7996 117.195 70.7289 117.229 69.4759 117.308C69.2836 117.308 69.19 117.21 69.19 117.018C69.19 116.826 69.2836 116.717 69.4759 116.688C70.6057 116.574 71.2763 116.308 71.4885 115.895C71.7649 115.422 71.9079 114.082 71.9079 111.871V101.415C71.9079 99.8393 71.8882 98.8791 71.8485 98.5441C71.8091 98.1894 71.7105 97.8695 71.5429 97.5935C71.311 97.1895 70.5214 96.9236 69.1751 96.8006C69.0024 96.7709 68.9136 96.6578 68.9136 96.4658C68.9136 96.2538 69.0024 96.1505 69.1751 96.1505C70.5416 96.2294 71.6611 96.2639 72.5294 96.2639C72.7319 96.2639 73.3827 96.2441 74.4927 96.2095C75.3611 96.1505 76.3771 96.1211 77.5412 96.1211C80.0374 96.1211 81.8921 96.7069 83.1058 97.8791C84.0477 98.8052 84.5214 100.012 84.5214 101.504C84.5214 102.76 84.0728 103.863 83.1798 104.804C82.3117 105.72 81.1029 106.384 79.5489 106.798C81.1672 109.911 82.4792 112.299 83.4808 113.964C84.1369 115.087 84.6992 115.826 85.1726 116.185C85.5082 116.431 86.1297 116.604 87.0372 116.688C87.2297 116.717 87.3282 116.826 87.3282 117.018C87.3282 117.21 87.2297 117.308 87.0372 117.308C86.1392 117.249 85.4389 117.22 84.9258 117.22C84.1663 117.22 83.5991 117.229 83.2241 117.249C83.0166 116.633 82.6519 115.855 82.1243 114.915C81.5568 113.925 80.7871 112.512 79.8254 110.674C78.9179 108.985 78.2664 107.769 77.8617 107.025C77.2159 107.084 76.6139 107.114 76.0514 107.114C75.3216 107.114 74.4729 107.074 73.5111 106.995ZM73.5111 106.05C74.4729 106.168 75.3311 106.227 76.0811 106.227C78.4537 106.227 80.1954 105.72 81.3149 104.71C82.1732 103.932 82.6026 102.912 82.6026 101.652C82.6026 98.5734 80.6638 97.0371 76.7917 97.0371C75.864 97.0371 75.2674 97.0568 74.9959 97.0961C74.5076 97.1601 74.162 97.3227 73.9599 97.569C73.7379 97.83 73.5951 98.3716 73.5406 99.1892C73.5208 99.5438 73.5111 100.287 73.5111 101.415V106.05ZM88.6849 116.688C89.3014 116.629 89.7206 116.565 89.9429 116.486C90.2882 116.372 90.54 116.176 90.6926 115.895C90.8948 115.589 91.0232 115.062 91.0675 114.324C91.0969 113.9 91.1118 113.082 91.1118 111.871V101.415C91.1118 99.8393 91.092 98.8738 91.0526 98.5292C91.0183 98.1747 90.9146 97.8544 90.7517 97.5638C90.5789 97.2832 90.2535 97.0863 89.7851 96.9731C89.6272 96.9434 89.198 96.8843 88.4977 96.8006C88.3444 96.7709 88.2654 96.6578 88.2654 96.4658C88.2654 96.2538 88.3444 96.1505 88.4977 96.1505C90.1352 96.2488 91.2601 96.2983 91.8766 96.2983C92.582 96.2983 93.677 96.2488 95.1567 96.1505C95.3592 96.1505 95.4629 96.2538 95.4629 96.4658C95.4629 96.6578 95.3642 96.7709 95.1716 96.8006C94.5009 96.8843 94.0764 96.9582 93.9037 97.0173C93.5538 97.1307 93.2924 97.3128 93.1052 97.5638C92.9221 97.8695 92.8138 98.4009 92.7745 99.1497C92.7546 99.4699 92.7448 100.224 92.7448 101.415V111.871C92.7448 113.565 92.7597 114.589 92.7894 114.959C92.8284 115.323 92.9221 115.634 93.0801 115.895C93.2529 116.195 93.5634 116.397 94.0173 116.515C94.2492 116.574 94.6638 116.629 95.2607 116.688C95.4629 116.717 95.5614 116.826 95.5614 117.018C95.5614 117.21 95.4676 117.308 95.2757 117.308C93.9089 117.229 92.7792 117.195 91.8912 117.195C91.0431 117.195 89.9774 117.229 88.6849 117.308C88.5125 117.308 88.4234 117.21 88.4234 117.018C88.4234 116.826 88.5125 116.717 88.6849 116.688ZM110.039 108.666V107.751H109.472L109.857 107.734L108.224 103.104C107.983 102.425 107.637 101.44 107.198 100.149C106.868 99.2087 106.636 98.5438 106.503 98.1595C106.37 98.5636 106.098 99.3268 105.694 100.45C105.25 101.681 104.939 102.558 104.752 103.075L103.104 107.734L103.538 107.751H103.324H103.019V108.666H102.713V108.823L101.447 112.314C100.924 113.737 100.662 114.757 100.662 115.372C100.662 115.594 100.692 115.776 100.751 115.924C100.884 116.21 101.151 116.407 101.545 116.515C101.728 116.564 102.157 116.618 102.833 116.687C103.035 116.707 103.134 116.815 103.134 117.018C103.134 117.209 103.035 117.308 102.833 117.308C101.693 117.249 100.712 117.219 99.8829 117.219C98.8421 117.219 97.8112 117.249 96.79 117.308C96.6172 117.308 96.5286 117.209 96.5286 117.018C96.5286 116.825 96.6172 116.717 96.79 116.687C97.6777 116.574 98.2992 116.308 98.6546 115.895C98.975 115.53 99.5178 114.299 100.287 112.205L103.701 102.947C104.979 99.4844 105.777 97.268 106.098 96.298L107.297 95.7363C107.386 95.7363 107.455 95.8203 107.514 95.983C108.861 100.105 109.655 102.479 109.882 103.104L113.221 112.432C113.897 114.308 114.396 115.471 114.726 115.924C114.938 116.219 115.239 116.422 115.639 116.53C115.846 116.589 116.231 116.638 116.778 116.687C116.971 116.707 117.064 116.815 117.064 117.018C117.064 117.209 116.971 117.308 116.778 117.308C115.372 117.229 114.243 117.194 113.394 117.194C112.575 117.194 111.485 117.229 110.114 117.308C109.921 117.308 109.828 117.209 109.828 117.018C109.828 116.815 109.921 116.707 110.114 116.687C111.337 116.584 112.038 116.337 112.211 115.954C112.289 115.776 112.329 115.574 112.329 115.348C112.329 114.885 112.092 114.003 111.619 112.703L110.344 109.134V108.666H110.039ZM105.155 108.669H105.46H105.592L105.155 108.673V108.669ZM122.269 99.0459H122.012L122.037 111.871C122.037 114.082 122.155 115.402 122.387 115.835C122.619 116.308 123.3 116.594 124.439 116.687C124.612 116.717 124.696 116.825 124.696 117.017C124.696 117.209 124.602 117.308 124.409 117.308C122.752 117.229 121.76 117.194 121.43 117.194C120.71 117.194 119.723 117.229 118.47 117.308C118.297 117.308 118.209 117.209 118.209 117.017C118.209 116.815 118.297 116.707 118.47 116.687C119.037 116.638 119.432 116.564 119.654 116.456C119.925 116.332 120.157 116.116 120.349 115.805C120.606 115.377 120.759 114.062 120.794 111.871L120.882 101.444C120.882 100.981 120.882 100.666 120.882 100.489C120.882 99.105 120.764 98.2136 120.522 97.8098C120.162 97.2336 119.412 96.8939 118.268 96.8002C118.075 96.7705 117.977 96.6527 117.977 96.4406C117.977 96.2484 118.075 96.1501 118.268 96.1501C119.23 96.2091 119.96 96.2388 120.463 96.2388C121.233 96.2388 121.884 96.2285 122.416 96.2091C123.048 97.3173 123.822 98.5091 124.725 99.7847L132.124 110.428C133.136 111.88 134.152 113.353 135.173 114.855L135.149 110.038L135.203 101.444C135.203 99.3069 135.055 98.0265 134.754 97.5931C134.552 97.3025 134.29 97.1056 133.96 97.002C133.693 96.9034 133.264 96.8398 132.677 96.8002C132.519 96.7804 132.445 96.6673 132.445 96.4654C132.445 96.2534 132.529 96.1501 132.702 96.1501C134.537 96.2289 135.548 96.2635 135.74 96.2635C136.189 96.2635 137.176 96.2289 138.685 96.1501C138.907 96.1501 139.021 96.2484 139.021 96.4406C139.021 96.6573 138.907 96.7804 138.685 96.8002C138.089 96.8546 137.684 96.9281 137.472 97.0169C137.26 97.1006 137.077 97.263 136.924 97.5044C136.623 97.9968 136.456 99.3069 136.416 101.444L136.244 111.871C136.214 112.649 136.199 113.476 136.199 114.348C136.199 115.195 136.214 116.18 136.244 117.308C135.676 117.643 135.366 117.81 135.321 117.81C135.252 117.81 135.183 117.761 135.119 117.667C134.685 116.933 133.511 115.2 131.592 112.462L122.269 99.0459ZM152.518 95.6771C155.793 95.6771 158.403 96.8348 160.351 99.1542C162.038 101.159 162.877 103.666 162.877 106.665C162.877 110.132 161.782 112.924 159.582 115.042C157.668 116.869 155.29 117.781 152.458 117.781C149.202 117.781 146.578 116.613 144.58 114.279C142.849 112.24 141.98 109.733 141.98 106.763C141.98 103.35 143.115 100.578 145.379 98.4454C147.343 96.5983 149.72 95.6771 152.518 95.6771ZM152.518 96.5637C149.888 96.5637 147.757 97.6225 146.129 99.7356C144.704 101.597 143.988 103.907 143.988 106.665C143.988 109.94 144.881 112.521 146.662 114.417C148.196 116.047 150.125 116.865 152.458 116.865C155.117 116.865 157.233 115.811 158.802 113.708C160.183 111.876 160.869 109.561 160.869 106.763C160.869 103.478 159.991 100.893 158.239 98.9965C156.725 97.3763 154.821 96.5637 152.518 96.5637ZM192.958 96.4457C193.032 97.5341 193.185 99.1248 193.417 101.213C193.427 101.262 193.432 101.311 193.432 101.356C193.432 101.494 193.353 101.582 193.185 101.631C193.131 101.642 193.076 101.646 193.027 101.646C192.903 101.646 192.805 101.548 192.741 101.356C192.124 99.7452 191.296 98.5635 190.255 97.8098C189.174 97.0169 187.744 96.6228 185.963 96.6228C183.467 96.6228 181.459 97.6666 179.95 99.7501C178.608 101.597 177.942 103.907 177.942 106.675C177.942 109.635 178.785 112.048 180.483 113.91C181.987 115.564 183.857 116.392 186.091 116.392C188.035 116.392 189.683 115.954 191.034 115.077C192.085 114.392 193.017 113.402 193.836 112.102C193.925 111.95 194.019 111.871 194.127 111.871C194.196 111.871 194.275 111.895 194.374 111.944C194.527 112.018 194.601 112.112 194.601 112.216C194.601 112.294 194.566 112.393 194.487 112.506C192.578 116.022 189.762 117.781 186.032 117.781C182.9 117.781 180.384 116.613 178.475 114.279C176.817 112.25 175.988 109.733 175.988 106.734C175.988 103.296 177.044 100.533 179.156 98.4454C181.005 96.6181 183.309 95.7069 186.077 95.7069C187.339 95.7069 188.484 95.8348 189.515 96.091C190.625 96.3667 191.463 96.5047 192.031 96.5047C192.332 96.5047 192.637 96.4848 192.958 96.4457ZM207.367 95.6771C210.643 95.6771 213.252 96.8348 215.201 99.1542C216.888 101.159 217.727 103.666 217.727 106.665C217.727 110.132 216.632 112.924 214.431 115.042C212.517 116.869 210.14 117.781 207.308 117.781C204.052 117.781 201.428 116.613 199.43 114.279C197.699 112.24 196.83 109.733 196.83 106.763C196.83 103.35 197.965 100.578 200.229 98.4454C202.193 96.5983 204.57 95.6771 207.367 95.6771ZM207.367 96.5637C204.738 96.5637 202.607 97.6225 200.979 99.7356C199.554 101.597 198.838 103.907 198.838 106.665C198.838 109.94 199.731 112.521 201.512 114.417C203.046 116.047 204.975 116.865 207.308 116.865C209.967 116.865 212.083 115.811 213.652 113.708C215.033 111.876 215.719 109.561 215.719 106.763C215.719 103.478 214.841 100.893 213.089 98.9965C211.575 97.3763 209.671 96.5637 207.367 96.5637ZM232.674 96.2091C232.762 97.7115 232.876 99.2428 233.024 100.809C233.029 100.849 233.033 100.873 233.033 100.883C233.033 101.006 232.934 101.085 232.732 101.114C232.703 101.114 232.678 101.114 232.658 101.114C232.515 101.114 232.427 101.04 232.402 100.898C232.101 99.3906 231.45 98.258 230.448 97.4995C229.649 96.8939 228.697 96.5931 227.588 96.5931C226.152 96.5931 225.067 97.0267 224.337 97.8886C223.774 98.5436 223.498 99.3511 223.498 100.312C223.498 101.272 223.745 102.065 224.233 102.69C224.766 103.365 225.649 104.01 226.892 104.636L228.382 105.37C230.172 106.266 231.44 107.069 232.185 107.778C233.3 108.862 233.857 110.127 233.857 111.57C233.857 113.348 233.383 114.766 232.427 115.835C231.272 117.13 229.472 117.781 227.025 117.781C225.357 117.781 223.675 117.451 221.979 116.786C221.574 115.446 221.214 113.855 220.898 112.008C220.888 111.984 220.883 111.954 220.883 111.925C220.883 111.816 220.972 111.748 221.154 111.708C221.214 111.699 221.263 111.693 221.303 111.693C221.406 111.693 221.49 111.762 221.544 111.895C222.117 113.574 222.955 114.86 224.075 115.741C225.047 116.51 226.137 116.894 227.34 116.894C229.047 116.894 230.33 116.377 231.183 115.338C231.82 114.569 232.14 113.653 232.14 112.599C232.14 111.275 231.701 110.152 230.823 109.241C230.167 108.566 229.121 107.867 227.676 107.138L226.403 106.488C224.869 105.719 223.774 104.981 223.123 104.266C222.245 103.326 221.806 102.227 221.806 100.967C221.806 99.3906 222.363 98.1102 223.483 97.1204C224.544 96.1798 225.949 95.7069 227.701 95.7069C228.51 95.7069 229.25 95.8055 229.915 96.0024C230.532 96.1798 231.179 96.2681 231.864 96.2681C232.185 96.2681 232.452 96.2484 232.674 96.2091ZM255.148 96.1501C255.262 97.7408 255.444 99.3267 255.696 100.917C255.705 100.967 255.711 101.001 255.711 101.031C255.711 101.149 255.617 101.228 255.434 101.277C255.37 101.287 255.316 101.292 255.276 101.292C255.173 101.292 255.094 101.213 255.045 101.06C254.911 100.425 254.665 99.7749 254.309 99.1198C253.969 98.4846 253.624 98.0463 253.269 97.8052C252.603 97.3322 251.36 97.0957 249.539 97.0957L248.844 97.0808C247.961 97.0808 247.394 97.2679 247.157 97.6422C246.964 97.9032 246.846 98.4203 246.806 99.1888C246.797 99.4104 246.792 100.159 246.792 101.44V111.871C246.792 113.476 246.821 114.501 246.88 114.944C246.93 115.288 247.048 115.604 247.24 115.894C247.423 116.19 247.744 116.396 248.197 116.515C248.454 116.584 248.893 116.638 249.51 116.687C249.712 116.717 249.816 116.825 249.816 117.017C249.816 117.209 249.717 117.308 249.525 117.308C247.837 117.229 246.673 117.194 246.027 117.194C245.361 117.194 244.266 117.229 242.732 117.308C242.539 117.308 242.446 117.209 242.446 117.017C242.446 116.825 242.539 116.717 242.732 116.687C243.358 116.628 243.803 116.559 244.064 116.471C244.389 116.348 244.626 116.155 244.769 115.894C245.031 115.421 245.159 114.082 245.159 111.871V101.44C245.159 99.8683 245.144 98.9081 245.119 98.5535C245.08 98.1594 244.981 97.8391 244.828 97.603C244.616 97.263 243.852 97.0957 242.529 97.0957C240.71 97.0957 239.476 97.3616 238.83 97.8935C238.139 98.3712 237.552 99.4401 237.084 101.09C237.034 101.223 236.95 101.292 236.837 101.292C236.788 101.292 236.728 101.283 236.665 101.262C236.496 101.223 236.418 101.154 236.418 101.046C236.418 101.026 236.423 100.991 236.432 100.947C236.699 99.2036 236.906 97.603 237.054 96.1501C239.856 96.2289 242.851 96.2635 246.027 96.2635C249.322 96.2635 252.361 96.2289 255.148 96.1501ZM267.559 108.738L267.528 108.736V108.36H267.223V107.751H266.829L267.214 107.733L265.581 103.104C265.34 102.424 264.994 101.439 264.555 100.149C264.225 99.2083 263.993 98.5433 263.86 98.1591C263.727 98.5631 263.455 99.3264 263.051 100.449C262.607 101.681 262.296 102.557 262.108 103.074L260.461 107.733L260.895 107.751H260.508V108.056H260.203V108.734L260.101 108.738L258.803 112.313C258.28 113.736 258.019 114.756 258.019 115.372C258.019 115.593 258.049 115.775 258.108 115.923C258.241 116.209 258.507 116.406 258.902 116.514C259.085 116.563 259.514 116.617 260.19 116.686C260.392 116.706 260.491 116.815 260.491 117.017C260.491 117.208 260.392 117.307 260.19 117.307C259.05 117.248 258.068 117.219 257.24 117.219C256.199 117.219 255.168 117.248 254.147 117.307C253.974 117.307 253.885 117.208 253.885 117.017C253.885 116.824 253.974 116.716 254.147 116.686C255.035 116.573 255.656 116.307 256.011 115.894C256.332 115.529 256.874 114.298 257.644 112.205L261.057 102.946C262.336 99.4835 263.134 97.2671 263.455 96.2971L264.654 95.7354C264.742 95.7354 264.812 95.8194 264.871 95.9821C266.218 100.104 267.012 102.478 267.239 103.103L270.578 112.431C271.254 114.308 271.753 115.47 272.083 115.923C272.295 116.218 272.596 116.421 272.995 116.529C273.203 116.588 273.587 116.637 274.135 116.686C274.327 116.706 274.421 116.815 274.421 117.017C274.421 117.208 274.327 117.307 274.135 117.307C272.729 117.228 271.599 117.193 270.751 117.193C269.932 117.193 268.842 117.228 267.471 117.307C267.278 117.307 267.184 117.208 267.184 117.017C267.184 116.815 267.278 116.706 267.471 116.686C268.694 116.583 269.394 116.337 269.567 115.953C269.646 115.775 269.685 115.573 269.685 115.347C269.685 114.884 269.449 114.002 268.975 112.702L267.559 108.738Z" fill="url(#paint0_linear_101_24)"/>
</g>
<path d="M92.8463 134.821H91.2388L95.8882 122.18H97.471L102.12 134.821H100.513L96.729 124.18H96.6301L92.8463 134.821ZM93.4398 129.883H99.9193V131.241H93.4398V129.883Z" fill="#CDA953"/>
<path d="M108 134.821H104.093V122.18H108.173C109.402 122.18 110.453 122.433 111.326 122.939C112.2 123.441 112.87 124.163 113.336 125.106C113.802 126.044 114.034 127.167 114.034 128.476C114.034 129.793 113.8 130.926 113.33 131.877C112.86 132.824 112.176 133.552 111.277 134.062C110.378 134.568 109.286 134.821 108 134.821ZM105.626 133.463H107.901C108.948 133.463 109.816 133.262 110.504 132.859C111.192 132.455 111.706 131.881 112.044 131.136C112.382 130.392 112.551 129.505 112.551 128.476C112.551 127.455 112.384 126.577 112.05 125.84C111.716 125.099 111.217 124.532 110.554 124.137C109.89 123.737 109.064 123.538 108.074 123.538H105.626V133.463Z" fill="#CDA953"/>
<path d="M116.531 122.18L120.29 132.822H120.438L124.197 122.18H125.805L121.155 134.821H119.573L114.923 122.18H116.531Z" fill="#CDA953"/>
<path d="M137.866 128.501C137.866 129.834 137.625 130.986 137.142 131.957C136.66 132.929 135.999 133.677 135.158 134.204C134.317 134.731 133.357 134.994 132.277 134.994C131.197 134.994 130.236 134.731 129.395 134.204C128.555 133.677 127.893 132.929 127.411 131.957C126.929 130.986 126.687 129.834 126.687 128.501C126.687 127.167 126.929 126.015 127.411 125.044C127.893 124.073 128.555 123.324 129.395 122.797C130.236 122.27 131.197 122.007 132.277 122.007C133.357 122.007 134.317 122.27 135.158 122.797C135.999 123.324 136.66 124.073 137.142 125.044C137.625 126.015 137.866 127.167 137.866 128.501ZM136.382 128.501C136.382 127.406 136.199 126.482 135.832 125.729C135.469 124.976 134.976 124.406 134.354 124.019C133.736 123.632 133.043 123.439 132.277 123.439C131.51 123.439 130.815 123.632 130.193 124.019C129.575 124.406 129.082 124.976 128.715 125.729C128.353 126.482 128.171 127.406 128.171 128.501C128.171 129.595 128.353 130.519 128.715 131.272C129.082 132.025 129.575 132.595 130.193 132.982C130.815 133.369 131.51 133.562 132.277 133.562C133.043 133.562 133.736 133.369 134.354 132.982C134.976 132.595 135.469 132.025 135.832 131.272C136.199 130.519 136.382 129.595 136.382 128.501Z" fill="#CDA953"/>
<path d="M149.1 126.13C148.964 125.715 148.784 125.342 148.562 125.013C148.343 124.68 148.082 124.396 147.777 124.161C147.476 123.927 147.134 123.748 146.75 123.624C146.367 123.501 145.947 123.439 145.489 123.439C144.739 123.439 144.057 123.632 143.443 124.019C142.828 124.406 142.34 124.976 141.977 125.729C141.615 126.482 141.433 127.406 141.433 128.501C141.433 129.595 141.617 130.519 141.983 131.272C142.35 132.025 142.847 132.595 143.474 132.982C144.1 133.369 144.805 133.562 145.588 133.562C146.313 133.562 146.952 133.408 147.505 133.099C148.061 132.787 148.494 132.346 148.803 131.778C149.116 131.206 149.273 130.533 149.273 129.76L149.743 129.859H145.934V128.501H150.757V129.859C150.757 130.9 150.534 131.805 150.089 132.575C149.648 133.344 149.038 133.941 148.259 134.365C147.484 134.784 146.594 134.994 145.588 134.994C144.467 134.994 143.482 134.731 142.633 134.204C141.788 133.677 141.128 132.929 140.654 131.957C140.184 130.986 139.949 129.834 139.949 128.501C139.949 127.501 140.083 126.601 140.351 125.803C140.623 125.001 141.007 124.318 141.501 123.754C141.996 123.19 142.581 122.758 143.257 122.458C143.933 122.157 144.677 122.007 145.489 122.007C146.157 122.007 146.779 122.108 147.356 122.309C147.937 122.507 148.455 122.789 148.908 123.155C149.366 123.517 149.747 123.951 150.052 124.457C150.357 124.96 150.567 125.517 150.683 126.13H149.1Z" fill="#CDA953"/>
<path d="M153.511 134.821H151.904L156.553 122.18H158.136L162.785 134.821H161.178L157.394 124.18H157.295L153.511 134.821ZM154.105 129.883H160.584V131.241H154.105V129.883Z" fill="#CDA953"/>
<path d="M168.665 134.821H164.758V122.18H168.838C170.066 122.18 171.118 122.433 171.991 122.939C172.865 123.441 173.535 124.163 174.001 125.106C174.466 126.044 174.699 127.167 174.699 128.476C174.699 129.793 174.464 130.926 173.995 131.877C173.525 132.824 172.84 133.552 171.942 134.062C171.043 134.568 169.951 134.821 168.665 134.821ZM166.291 133.463H168.566C169.613 133.463 170.481 133.262 171.169 132.859C171.857 132.455 172.371 131.881 172.709 131.136C173.047 130.392 173.216 129.505 173.216 128.476C173.216 127.455 173.049 126.577 172.715 125.84C172.381 125.099 171.882 124.532 171.219 124.137C170.555 123.737 169.728 123.538 168.739 123.538H166.291V133.463Z" fill="#CDA953"/>
<path d="M187.955 128.501C187.955 129.834 187.714 130.986 187.232 131.957C186.75 132.929 186.088 133.677 185.247 134.204C184.406 134.731 183.446 134.994 182.366 134.994C181.286 134.994 180.326 134.731 179.485 134.204C178.644 133.677 177.982 132.929 177.5 131.957C177.018 130.986 176.777 129.834 176.777 128.501C176.777 127.167 177.018 126.015 177.5 125.044C177.982 124.073 178.644 123.324 179.485 122.797C180.326 122.27 181.286 122.007 182.366 122.007C183.446 122.007 184.406 122.27 185.247 122.797C186.088 123.324 186.75 124.073 187.232 125.044C187.714 126.015 187.955 127.167 187.955 128.501ZM186.471 128.501C186.471 127.406 186.288 126.482 185.921 125.729C185.558 124.976 185.066 124.406 184.443 124.019C183.825 123.632 183.133 123.439 182.366 123.439C181.599 123.439 180.905 123.632 180.282 124.019C179.664 124.406 179.172 124.976 178.805 125.729C178.442 126.482 178.261 127.406 178.261 128.501C178.261 129.595 178.442 130.519 178.805 131.272C179.172 132.025 179.664 132.595 180.282 132.982C180.905 133.369 181.599 133.562 182.366 133.562C183.133 133.562 183.825 133.369 184.443 132.982C185.066 132.595 185.558 132.025 185.921 131.272C186.288 130.519 186.471 129.595 186.471 128.501Z" fill="#CDA953"/>
<path d="M145.427 17.9042C156.407 17.9042 165.39 26.8727 165.39 37.8346V60.9975C165.39 71.9594 156.407 80.9279 145.428 80.9279C134.448 80.9279 125.465 71.9594 125.465 60.9975V37.8346C125.465 26.8727 134.447 17.9042 145.427 17.9042Z" stroke="#CDA953" stroke-width="4.47987" stroke-miterlimit="22.9256"/>
<mask id="mask1_101_24" style="mask-type:luminance" maskUnits="userSpaceOnUse" x="146" y="35" width="19" height="14">
<path d="M148.223 36.8963C149.03 36.6106 149.836 36.3247 150.779 36.1522C151.722 35.9794 152.801 35.9192 153.85 35.9495C154.899 35.9795 155.918 36.099 156.967 36.3384C158.017 36.5778 159.096 36.937 159.905 37.2963C160.714 37.6552 161.254 38.0143 161.793 38.3733C162.632 37.3559 163.472 36.3384 164.311 35.3209C164.431 39.8695 164.551 44.4184 164.671 48.967C163.892 48.967 163.112 48.967 162.333 48.967C162.153 47.6502 161.973 46.3334 161.584 45.1068C161.194 43.8797 160.595 42.7424 159.845 41.7552C159.096 40.7674 158.197 39.9295 157.297 39.3908C156.398 38.8521 155.499 38.613 154.6 38.4931C153.701 38.3733 152.801 38.3733 151.992 38.5231C151.183 38.6726 150.463 38.9719 149.804 39.3012C149.144 39.6302 148.545 39.9894 147.945 40.3485C147.525 39.3308 147.106 38.3137 146.686 37.2963C147.199 37.163 147.711 37.0295 148.223 36.8963Z" fill="white"/>
</mask>
<g mask="url(#mask1_101_24)">
<path fill-rule="evenodd" clip-rule="evenodd" d="M148.223 36.8963C149.03 36.6106 149.836 36.3247 150.779 36.1522C151.722 35.9794 152.801 35.9192 153.85 35.9495C154.899 35.9795 155.918 36.099 156.967 36.3384C158.017 36.5778 159.096 36.937 159.905 37.2963C160.714 37.6552 161.254 38.0143 161.793 38.3733C162.632 37.3559 163.472 36.3384 164.311 35.3209C164.431 39.8695 164.551 44.4184 164.671 48.967C163.892 48.967 163.112 48.967 162.333 48.967C162.153 47.6502 161.973 46.3334 161.584 45.1068C161.194 43.8797 160.595 42.7424 159.845 41.7552C159.096 40.7674 158.197 39.9295 157.297 39.3908C156.398 38.8521 155.499 38.613 154.6 38.4931C153.701 38.3733 152.801 38.3733 151.992 38.5231C151.183 38.6726 150.463 38.9719 149.804 39.3012C149.144 39.6302 148.545 39.9894 147.945 40.3485C147.525 39.3308 147.106 38.3137 146.686 37.2963C147.199 37.163 147.711 37.0295 148.223 36.8963Z" fill="url(#paint1_linear_101_24)"/>
</g>
<mask id="mask2_101_24" style="mask-type:luminance" maskUnits="userSpaceOnUse" x="126" y="25" width="39" height="47">
<path d="M142.01 25.8044C142.73 25.8044 143.449 25.8044 144.169 25.8044C148.125 36.6377 152.082 47.471 154.24 53.1269C156.398 58.7829 156.758 59.2616 157.177 59.6508C157.597 60.0397 158.077 60.339 158.526 60.5484C158.976 60.7578 159.395 60.8777 159.695 60.9376C159.995 60.9975 160.175 60.9975 160.355 60.9975C160.415 61.5959 160.475 62.1944 160.535 62.7927C155.978 62.7927 151.422 62.7927 146.866 62.7927C146.866 62.1345 146.866 61.476 146.866 60.8178C147.406 60.8178 147.945 60.8178 148.545 60.7878C149.144 60.7578 149.804 60.6979 150.254 60.4885C150.703 60.279 150.943 59.9198 150.883 59.2915C150.823 58.663 150.463 57.7651 148.844 53.366C147.226 48.967 144.348 41.0664 141.471 33.1662C139.013 39.4507 136.555 45.7351 135.176 49.3262C133.798 52.9172 133.497 53.8151 133.348 54.4736C133.198 55.1319 133.198 55.5507 133.288 55.85C133.378 56.1494 133.557 56.3288 133.917 56.5086C134.277 56.6881 134.816 56.8675 135.326 57.0172C135.835 57.1667 136.315 57.2866 136.705 57.3462C137.095 57.4061 137.394 57.4061 137.694 57.4061C137.634 55.9699 137.574 54.5332 137.574 53.1266C137.574 51.7203 137.634 50.3436 137.814 49.2067C137.994 48.0693 138.293 47.1715 138.503 46.5731C138.713 45.9745 138.833 45.6752 138.953 45.3762C140.631 45.3762 142.31 45.3762 143.989 45.3762C144.648 46.9324 145.307 48.4882 145.967 50.0443C145.967 50.284 145.967 50.5234 145.967 50.7628C144.528 50.7628 143.09 50.7628 141.651 50.7628C141.651 51.0022 141.651 51.2413 141.891 51.78C142.13 52.3186 142.61 53.1569 142.909 53.6656C143.209 54.1744 143.329 54.3539 143.389 54.8625C143.449 55.3712 143.449 56.2093 143.599 57.1967C143.749 58.1842 144.049 59.3215 144.378 60.3093C144.708 61.2966 145.068 62.1345 145.637 63.0025C146.207 63.8701 146.986 64.768 147.705 65.4865C148.425 66.2043 149.084 66.7429 149.804 67.1621C150.523 67.581 151.302 67.8803 152.022 68.0598C152.741 68.2392 153.401 68.2992 154.12 68.2992C154.839 68.2992 155.619 68.2392 156.488 68.0598C157.357 67.8803 158.316 67.581 159.156 67.1621C159.995 66.7429 160.714 66.2044 161.404 65.4562C162.093 64.7081 162.753 63.7506 163.262 62.8526C163.772 61.9547 164.131 61.1171 164.491 60.279C164.431 61.5959 164.371 62.9126 164.221 64.1397C164.071 65.3666 163.832 66.5036 162.783 67.5211C161.733 68.5386 159.875 69.4364 158.256 70.0347C156.638 70.6334 155.259 70.9327 153.76 71.0226C152.262 71.1121 150.643 70.9926 149.114 70.6037C147.586 70.2145 146.147 69.5559 144.948 68.8379C143.749 68.1197 142.79 67.3416 141.98 66.5335C141.171 65.7256 140.511 64.8875 140.002 64.0198C139.493 63.152 139.133 62.254 138.863 61.5359C138.593 60.8178 138.414 60.2791 138.324 59.9498C138.233 59.6208 138.233 59.5009 138.233 59.3814C134.277 59.3215 130.32 59.2616 126.364 59.2017C126.364 58.5435 126.364 57.8849 126.364 57.2267C126.664 57.2866 126.963 57.3462 127.323 57.2566C127.683 57.1667 128.102 56.9274 128.582 56.5086C129.061 56.0897 129.601 55.4908 130.111 54.6231C130.62 53.7552 131.099 52.6179 131.909 50.7325C132.718 48.8474 133.857 46.2139 135.596 41.9347C137.334 37.6552 139.672 31.7299 142.01 25.8044Z" fill="white"/>
</mask>
<g mask="url(#mask2_101_24)">
<path fill-rule="evenodd" clip-rule="evenodd" d="M142.01 25.8044C142.73 25.8044 143.449 25.8044 144.169 25.8044C148.125 36.6377 152.082 47.471 154.24 53.1269C156.398 58.7829 156.758 59.2616 157.177 59.6508C157.597 60.0397 158.077 60.339 158.526 60.5484C158.976 60.7578 159.395 60.8777 159.695 60.9376C159.995 60.9975 160.175 60.9975 160.355 60.9975C160.415 61.5959 160.475 62.1944 160.535 62.7927C155.978 62.7927 151.422 62.7927 146.866 62.7927C146.866 62.1345 146.866 61.476 146.866 60.8178C147.406 60.8178 147.945 60.8178 148.545 60.7878C149.144 60.7578 149.804 60.6979 150.254 60.4885C150.703 60.279 150.943 59.9198 150.883 59.2915C150.823 58.663 150.463 57.7651 148.844 53.366C147.226 48.967 144.348 41.0664 141.471 33.1662C139.013 39.4507 136.555 45.7351 135.176 49.3262C133.798 52.9172 133.497 53.8151 133.348 54.4736C133.198 55.1319 133.198 55.5507 133.288 55.85C133.378 56.1494 133.557 56.3288 133.917 56.5086C134.277 56.6881 134.816 56.8675 135.326 57.0172C135.835 57.1667 136.315 57.2866 136.705 57.3462C137.095 57.4061 137.394 57.4061 137.694 57.4061C137.634 55.9699 137.574 54.5332 137.574 53.1266C137.574 51.7203 137.634 50.3436 137.814 49.2067C137.994 48.0693 138.293 47.1715 138.503 46.5731C138.713 45.9745 138.833 45.6752 138.953 45.3762C140.631 45.3762 142.31 45.3762 143.989 45.3762C144.648 46.9324 145.307 48.4882 145.967 50.0443C145.967 50.284 145.967 50.5234 145.967 50.7628C144.528 50.7628 143.09 50.7628 141.651 50.7628C141.651 51.0022 141.651 51.2413 141.891 51.78C142.13 52.3186 142.61 53.1569 142.909 53.6656C143.209 54.1744 143.329 54.3539 143.389 54.8625C143.449 55.3712 143.449 56.2093 143.599 57.1967C143.749 58.1842 144.049 59.3215 144.378 60.3093C144.708 61.2966 145.068 62.1345 145.637 63.0025C146.207 63.8701 146.986 64.768 147.705 65.4865C148.425 66.2043 149.084 66.7429 149.804 67.1621C150.523 67.581 151.302 67.8803 152.022 68.0598C152.741 68.2392 153.401 68.2992 154.12 68.2992C154.839 68.2992 155.619 68.2392 156.488 68.0598C157.357 67.8803 158.316 67.581 159.156 67.1621C159.995 66.7429 160.714 66.2044 161.404 65.4562C162.093 64.7081 162.753 63.7506 163.262 62.8526C163.772 61.9547 164.131 61.1171 164.491 60.279C164.431 61.5959 164.371 62.9126 164.221 64.1397C164.071 65.3666 163.832 66.5036 162.783 67.5211C161.733 68.5386 159.875 69.4364 158.256 70.0347C156.638 70.6334 155.259 70.9327 153.76 71.0226C152.262 71.1121 150.643 70.9926 149.114 70.6037C147.586 70.2145 146.147 69.5559 144.948 68.8379C143.749 68.1197 142.79 67.3416 141.98 66.5335C141.171 65.7256 140.511 64.8875 140.002 64.0198C139.493 63.152 139.133 62.254 138.863 61.5359C138.593 60.8178 138.414 60.2791 138.324 59.9498C138.233 59.6208 138.233 59.5009 138.233 59.3814C134.277 59.3215 130.32 59.2616 126.364 59.2017C126.364 58.5435 126.364 57.8849 126.364 57.2267C126.664 57.2866 126.963 57.3462 127.323 57.2566C127.683 57.1667 128.102 56.9274 128.582 56.5086C129.061 56.0897 129.601 55.4908 130.111 54.6231C130.62 53.7552 131.099 52.6179 131.909 50.7325C132.718 48.8474 133.857 46.2139 135.596 41.9347C137.334 37.6552 139.672 31.7299 142.01 25.8044Z" fill="url(#paint2_linear_101_24)"/>
</g>
<defs>
<linearGradient id="paint0_linear_101_24" x1="23.6595" y1="106.747" x2="274.417" y2="106.747" gradientUnits="userSpaceOnUse">
<stop stop-color="#DFBF68"/>
<stop offset="0.27" stop-color="#A6802F"/>
<stop offset="0.47" stop-color="#DCBD62"/>
<stop offset="0.69" stop-color="#E3C565"/>
<stop offset="0.82" stop-color="#FCEB83"/>
<stop offset="1" stop-color="#EBD476"/>
</linearGradient>
<linearGradient id="paint1_linear_101_24" x1="146.684" y1="42.1425" x2="164.671" y2="42.1425" gradientUnits="userSpaceOnUse">
<stop stop-color="#DFBF68"/>
<stop offset="0.5" stop-color="#F6E280"/>
<stop offset="1" stop-color="#B38E3A"/>
</linearGradient>
<linearGradient id="paint2_linear_101_24" x1="126.365" y1="48.4326" x2="164.496" y2="48.4326" gradientUnits="userSpaceOnUse">
<stop stop-color="#B89551"/>
<stop offset="0.12" stop-color="#D1B65F"/>
<stop offset="0.23" stop-color="#E9D073"/>
<stop offset="0.35" stop-color="#F8E888"/>
<stop offset="0.47" stop-color="#F3DA76"/>
<stop offset="0.56" stop-color="#E4C666"/>
<stop offset="0.65" stop-color="#DABB60"/>
<stop offset="0.77" stop-color="#C0A146"/>
<stop offset="0.89" stop-color="#B18B38"/>
<stop offset="1" stop-color="#DFBF68"/>
</linearGradient>
</defs>
</svg>
